{"title":"Cavalcade of Cartoon Comedy (2008) DVDRip XviD-SPRiNTER","uid":5504121,"size":745509301,"categoryP":"video","categoryS":"movies","magnet":"?xt=urn:btih:5f09cab2f5efb09a8c15c943f8b7449d720ddda0&amp;dn=Cavalcade+of+Cartoon+Comedy+%282008%29+DVDRip+XviD-SPRiNTER&amp;tr=udp%3A%2F%2Ftracker.openbittorrent.com%3A80&amp;tr=udp%3A%2F%2Fopen.demonii.com%3A1337&amp;tr=udp%3A%2F%2Ftracker.coppersurfer.tk%3A6969&amp;tr=udp%3A%2F%2Fexodus.desync.com%3A6969","seeders":1,"leechers":1,"uploader":"extremezone","files":-1,"time":1271713339,"description":"Cavalcade of Cartoon Comedy (2008) DVDRip XviD-SPRiNTER\n\nFormat                           : AVI\nFormat/Info                      : Audio Video Interleave\nFile size                        : 696 MiB\nDuration                         : 51mn 37s\nOverall bit rate                 : 1 884 Kbps\nWriting application              : VirtualDubMod 1.5.10.2 (build 2540/release)\nWriting library                  : VirtualDubMod build 2540/release\n \nVideo\nID                               : 0\nFormat                           : MPEG-4 Visual\nFormat profile                   : Advanced Simple@L5\nFormat settings, BVOP            : Yes\nFormat settings, QPel            : No\nFormat settings, GMC             : No warppoints\nFormat settings, Matrix          : Default (H.263)\nCodec ID                         : XVID\nCodec ID/Hint                    : XviD\nDuration                         : 51mn 37s\nBit rate                         : 1 427 Kbps\nWidth                            : 608 pixels\nHeight                           : 448 pixels\nDisplay aspect ratio             : 4:3\nFrame rate                       : 25.000 fps\nResolution                       : 8 bits\nColorimetry                      : 4:2:0\nScan type                        : Progressive\nBits/(Pixel*Frame)               : 0.210\nStream size                      : 527 MiB (76%)\nWriting library                  : XviD 1.1.2 (UTC 2006-11-01)\n \nAudio\nID                               : 1\nFormat                           : AC-3\nFormat/Info                      : Audio Coding 3\nCodec ID                         : 2000\nDuration                         : 51mn 37s\nBit rate mode                    : Constant\nBit rate                         : 448 Kbps\nChannel(s)                       : 6 channels\nChannel positions                : Front: L C R, Side: L R, LFE\nSampling rate                    : 48.0 KHz\nStream size                      : 165 MiB (24%)\nAlignment                        : Split accross interleaves\nInterleave, duration             : 40 ms (1.00 video frame)\nInterleave, preload duration     : 500 ms\n\nScreenCaps:\n &lt;a href=&quot;\nhttp://www.postimg.com/image/14000/13552.jpg&quot; rel=&quot;nofollow&quot; target=&quot;_NEW&quot;&gt;\nhttp://www.postimg.com/image/14000/13552.jpg&lt;/a&gt;\n\nCavalcade of Cartoon Comedy (2008) DVDRip XviD-SPRiNTER Torrent Free Download\n &lt;a href=&quot;\nhttp://thepiratebay.se/user/extremezone/0/7&quot; rel=&quot;nofollow&quot; target=&quot;_NEW&quot;&gt;\nhttp://thepiratebay.se/user/extremezone/0/7&lt;/a&gt;","torrent":{"xt":"urn:btih:5f09cab2f5efb09a8c15c943f8b7449d720ddda0","amp;dn":"Cavalcade+of+Cartoon+Comedy+%282008%29+DVDRip+XviD-SPRiNTER","amp;tr":["udp%3A%2F%2Ftracker.openbittorrent.com%3A80","udp%3A%2F%2Fopen.demonii.com%3A1337","udp%3A%2F%2Ftracker.coppersurfer.tk%3A6969","udp%3A%2F%2Fexodus.desync.com%3A6969"],"infoHash":"5f09cab2f5efb09a8c15c943f8b7449d720ddda0","infoHashBuffer":{"type":"Buffer","data":[95,9,202,178,245,239,176,154,140,21,201,67,248,183,68,157,114,13,221,160]},"announce":[],"urlList":[]}}